<svg width="1025" height="465" viewBox="0 0 1025 465" fill="none" xmlns="http://www.w3.org/2000/svg">
<path d="M96.5047 200.547C99.8647 197.047 102.525 194.247 104.485 192.147C106.445 189.907 107.565 188.297 107.845 187.317C108.265 186.337 108.475 184.937 108.475 183.117V70.9769C108.475 69.1569 108.265 67.7569 107.845 66.7769C107.565 65.7969 106.445 64.2569 104.485 62.1569C102.525 59.9169 99.8647 57.0469 96.5047 53.5469H162.025C173.085 53.5469 182.675 55.2269 190.795 58.5869C198.915 61.9469 205.075 66.5669 209.275 72.4469C213.475 78.3269 215.575 84.9069 215.575 92.1869C215.575 99.4669 213.475 106.047 209.275 111.927C205.075 117.807 198.915 122.427 190.795 125.787C182.675 129.147 173.085 130.827 162.025 130.827H139.135V183.117C139.135 184.937 139.345 186.337 139.765 187.317C140.325 188.297 142.005 189.907 144.805 192.147C147.605 194.247 151.385 197.047 156.145 200.547H96.5047ZM151.315 123.057C161.535 123.057 169.445 120.187 175.045 114.447C180.785 108.707 183.655 101.287 183.655 92.1869C183.655 83.0869 180.785 75.6669 175.045 69.9269C169.445 64.1869 161.535 61.3169 151.315 61.3169H139.135V123.057H151.315ZM203.803 200.547C207.863 194.387 210.453 190.327 211.573 188.367C212.833 186.407 214.863 182.417 217.663 176.397L272.683 52.4969H282.343L337.573 177.237C340.373 183.257 342.263 187.247 343.243 189.207C344.363 191.167 346.813 194.947 350.593 200.547H289.483C296.343 195.647 300.753 192.287 302.713 190.467C304.813 188.647 305.863 186.827 305.863 185.007C305.863 183.747 305.303 181.787 304.183 179.127L294.103 155.397H237.823L227.323 179.757C226.063 182.837 225.433 184.867 225.433 185.847C225.433 187.527 226.343 189.207 228.163 190.887C230.123 192.567 234.603 195.787 241.603 200.547H203.803ZM290.533 146.997L266.173 89.4569L241.393 146.997H290.533ZM361.261 200.547C364.621 197.047 367.281 194.247 369.241 192.147C371.201 189.907 372.321 188.297 372.601 187.317C373.021 186.337 373.231 184.937 373.231 183.117V70.9769C373.231 69.1569 373.021 67.7569 372.601 66.7769C372.321 65.7969 371.201 64.2569 369.241 62.1569C367.281 59.9169 364.621 57.0469 361.261 53.5469H426.781C438.401 53.5469 448.201 55.2269 456.181 58.5869C464.301 61.9469 470.321 66.4269 474.241 72.0269C478.301 77.4869 480.331 83.5769 480.331 90.2969C480.331 99.1169 477.041 106.537 470.461 112.557C464.021 118.577 454.571 122.497 442.111 124.317L482.641 179.337C487.121 185.497 490.201 189.487 491.881 191.307C493.561 192.987 497.061 196.067 502.381 200.547H460.801L408.931 125.577H403.891V183.117C403.891 184.937 404.101 186.337 404.521 187.317C404.941 188.297 406.341 189.907 408.721 192.147C411.241 194.247 414.601 197.047 418.801 200.547H361.261ZM416.701 121.587C426.921 121.587 434.761 118.927 440.221 113.607C445.681 108.147 448.411 100.727 448.411 91.3469C448.411 82.1069 445.681 74.8269 440.221 69.5069C434.761 64.0469 426.921 61.3169 416.701 61.3169H403.891V121.587H416.701ZM553.598 123.057V183.117C553.598 184.937 553.808 186.337 554.228 187.317C554.788 188.297 556.398 189.907 559.058 192.147C561.858 194.247 565.568 197.047 570.188 200.547H510.968C514.328 197.047 516.988 194.247 518.948 192.147C520.908 189.907 522.028 188.297 522.308 187.317C522.728 186.337 522.938 184.937 522.938 183.117V70.9769C522.938 69.1569 522.728 67.7569 522.308 66.7769C522.028 65.7969 520.908 64.2569 518.948 62.1569C516.988 59.9169 514.328 57.0469 510.968 53.5469H565.358C561.998 57.0469 559.338 59.9169 557.378 62.1569C555.558 64.2569 554.438 65.7969 554.018 66.7769C553.738 67.7569 553.598 69.1569 553.598 70.9769V122.007L605.468 78.9569C609.948 75.3169 612.958 72.6569 614.498 70.9769C616.038 69.2969 616.808 67.7569 616.808 66.3569C616.808 64.9569 615.968 63.4169 614.288 61.7369C612.748 60.0569 609.738 57.3269 605.258 53.5469H655.238C645.998 59.2869 639.908 63.2769 636.968 65.5169C634.028 67.6169 628.218 72.3069 619.538 79.5869L582.368 111.087L639.278 180.807C643.198 185.567 645.928 188.787 647.468 190.467C649.148 192.147 652.998 195.507 659.018 200.547H615.338L553.598 123.057ZM668.673 200.547C672.033 197.047 674.693 194.247 676.653 192.147C678.613 189.907 679.733 188.297 680.013 187.317C680.433 186.337 680.643 184.937 680.643 183.117V70.9769C680.643 69.1569 680.433 67.7569 680.013 66.7769C679.733 65.7969 678.613 64.2569 676.653 62.1569C674.693 59.9169 672.033 57.0469 668.673 53.5469H775.563V87.1469C768.143 77.7669 763.103 71.6069 760.443 68.6669C757.923 65.7269 755.963 63.9069 754.563 63.2069C753.303 62.3669 751.553 61.9469 749.313 61.9469H711.303V118.437H741.333C743.573 118.437 745.253 118.227 746.373 117.807C747.633 117.247 749.663 115.637 752.463 112.977C755.403 110.317 759.183 106.677 763.803 102.057V143.217C759.183 138.597 755.403 134.957 752.463 132.297C749.663 129.637 747.633 128.097 746.373 127.677C745.253 127.117 743.573 126.837 741.333 126.837H711.303V192.147H744.483C747.143 192.147 749.313 191.727 750.993 190.887C752.813 190.047 755.473 187.947 758.973 184.587C762.473 181.087 769.403 174.017 779.763 163.377L773.043 200.547H668.673ZM795.206 200.547C798.566 197.047 801.226 194.247 803.186 192.147C805.146 189.907 806.266 188.297 806.546 187.317C806.966 186.337 807.176 184.937 807.176 183.117V70.9769C807.176 69.1569 806.966 67.7569 806.546 66.7769C806.266 65.7969 805.146 64.2569 803.186 62.1569C801.226 59.9169 798.566 57.0469 795.206 53.5469H860.726C872.346 53.5469 882.146 55.2269 890.126 58.5869C898.246 61.9469 904.266 66.4269 908.186 72.0269C912.246 77.4869 914.276 83.5769 914.276 90.2969C914.276 99.1169 910.986 106.537 904.406 112.557C897.966 118.577 888.516 122.497 876.056 124.317L916.586 179.337C921.066 185.497 924.146 189.487 925.826 191.307C927.506 192.987 931.006 196.067 936.326 200.547H894.746L842.876 125.577H837.836V183.117C837.836 184.937 838.046 186.337 838.466 187.317C838.886 188.297 840.286 189.907 842.666 192.147C845.186 194.247 848.546 197.047 852.746 200.547H795.206ZM850.646 121.587C860.866 121.587 868.706 118.927 874.166 113.607C879.626 108.147 882.356 100.727 882.356 91.3469C882.356 82.1069 879.626 74.8269 874.166 69.5069C868.706 64.0469 860.866 61.3169 850.646 61.3169H837.836V121.587H850.646ZM102.581 393.117V280.767V263.547H161.171C175.311 263.547 186.161 266.697 193.721 272.997C201.421 279.297 205.271 288.047 205.271 299.247C205.271 307.507 202.821 314.787 197.921 321.087C193.021 327.387 186.091 331.097 177.131 332.217C187.211 333.337 195.191 337.117 201.071 343.557C207.091 349.997 210.101 357.837 210.101 367.077C210.101 380.517 205.761 391.157 197.081 398.997C188.401 406.697 176.291 410.547 160.751 410.547H102.581V393.117ZM156.131 385.557C162.991 385.557 168.451 383.807 172.511 380.307C176.711 376.667 178.811 371.767 178.811 365.607C178.811 359.307 176.711 354.407 172.511 350.907C168.451 347.267 162.921 345.447 155.921 345.447H133.451V385.557H156.131ZM153.401 321.927C160.121 321.927 165.161 320.387 168.521 317.307C171.881 314.227 173.561 309.957 173.561 304.497C173.561 299.037 171.881 294.767 168.521 291.687C165.161 288.467 160.261 286.857 153.821 286.857H133.451V321.927H153.401ZM231.828 385.767L279.498 263.547H311.208L359.508 387.027L368.538 410.547H335.148L327.798 388.917L324.018 378.207H266.058L262.068 389.967L255.138 410.547H221.958L231.828 385.767ZM314.778 351.117L295.038 294.627L275.508 351.117H314.778ZM388.87 393.117V280.767V263.547H445.99C455.93 263.547 464.68 265.437 472.24 269.217C479.8 272.857 485.61 278.037 489.67 284.757C493.87 291.477 495.97 299.177 495.97 307.857C495.97 317.517 493.45 325.987 488.41 333.267C483.37 340.407 476.37 345.587 467.41 348.807L499.12 389.337L515.5 410.547H478.75L434.86 352.377H419.53V391.647V410.547H388.87V393.117ZM440.95 326.967C448.93 326.967 454.81 325.287 458.59 321.927C462.51 318.567 464.47 313.877 464.47 307.857C464.47 301.977 462.51 297.357 458.59 293.997C454.81 290.637 448.93 288.957 440.95 288.957H419.53V326.967H440.95ZM565.34 339.777V393.327V410.547H534.68V393.117V280.767V263.547H565.34V280.977V327.387L601.67 288.957L611.96 277.827L625.19 263.547H664.25C662.15 265.647 659.56 268.377 656.48 271.737L639.05 289.797L597.68 332.217L649.55 390.807L657.11 399.627L666.77 410.547H626.03L565.34 339.777ZM686.848 393.117V280.767V263.547H781.768V291.057H754.258H717.508V321.297H748.378H770.008V348.597H748.168H717.508V383.037H751.108H781.768V410.547H686.848V393.117ZM811.536 393.117V280.767V263.547H868.656C878.596 263.547 887.346 265.437 894.906 269.217C902.466 272.857 908.276 278.037 912.336 284.757C916.536 291.477 918.636 299.177 918.636 307.857C918.636 317.517 916.116 325.987 911.076 333.267C906.036 340.407 899.036 345.587 890.076 348.807L921.786 389.337L938.166 410.547H901.416L857.526 352.377H842.196V391.647V410.547H811.536V393.117ZM863.616 326.967C871.596 326.967 877.476 325.287 881.256 321.927C885.176 318.567 887.136 313.877 887.136 307.857C887.136 301.977 885.176 297.357 881.256 293.997C877.476 290.637 871.596 288.957 863.616 288.957H842.196V326.967H863.616Z" fill="white"/>
</svg>
